<svg id="Capa_2" data-name="Capa 2" xmlns="http://www.w3.org/2000/svg" viewBox="0 0 1080 1080"><defs><style>.cls-1{fill:#696e5e;}</style></defs><path class="cls-1" d="M915,376.18c-6.13,21.43-12.39,42.83-18.37,64.31q-20.77,74.63-41.35,149.31c-6.78,24.4-23.77,37.3-49,37.3q-159,0-318.1,0c-24.59,0-40.61-11.68-48.38-35.13-3.74-11.26-7.44-22.53-11.4-34.52-1.85,2.16-1.33,4.09-1.34,5.79q0,41.49,0,83c0,16.06,6.34,22.17,22.74,22.17q174.34,0,348.68,0c18.06,0,30.94,9.31,35.55,25.39,6,20.8-9,42.29-30.63,43.84-1.69.12-3.39.1-5.09.1q-180.88,0-361.78,0c-39,0-70.76-25.75-78.9-63.59a102.89,102.89,0,0,1-2.05-21.69q.09-126.66.13-253.32a27.1,27.1,0,0,0-5.31-16.82q-26.83-37.18-53.16-74.73c-14.5-20.66-33.93-31.12-59.38-30.32-11.15.35-22.33.31-33.48,0-17.35-.56-30.25-10.56-34.48-26.17A34.82,34.82,0,0,1,184.69,213a31.56,31.56,0,0,1,17.13-5.5c23.25-.14,46.59-2.13,69.68,2.21,29.86,5.6,54.38,20.46,72.92,44.41,13.65,17.64,26.68,35.81,39.12,54.32,5,7.47,10.62,9.52,19.19,9.51q230-.36,460.06-.2c13.24,0,25.47,2.71,36.05,11.18,8.33,6.66,12.65,15.77,16.12,25.46Z"/><path class="cls-1" d="M762.9,769.75c29,.94,52.14,24.56,51.47,52.59-.69,28.8-25.25,52.8-53.13,51.89-28.51-.93-52-25-51.48-52.83C710.28,792.56,734.69,768.84,762.9,769.75Z"/><path class="cls-1" d="M481.52,822.34c-.08,28.65-23.68,52.24-51.92,51.9-28.66-.34-52.49-24.46-52.19-52.81s24.07-51.85,52.35-51.59C459.09,770.1,481.61,793,481.52,822.34Z"/></svg>