<svg id="Capa_2" data-name="Capa 2" xmlns="http://www.w3.org/2000/svg" viewBox="0 0 1080 1080"><defs><style>.cls-1{fill:#696e5e;}</style></defs><path class="cls-1" d="M572.79,915.24H511.58a24.34,24.34,0,0,0-3.53-.81,362.73,362.73,0,0,1-101-23.69c-182.16-71-278.8-268-223.35-454.31,55.16-185.28,237.34-298.27,426.91-261.17,150,29.35,246.71,121.8,292,267.73,6.93,22.31,9.83,45.46,12.57,68.59v61.21c-1.25,9.11-2.11,18.3-3.83,27.33Q867.91,828.53,646.93,901C622.89,908.9,597.84,912.23,572.79,915.24ZM499,646h-.05q0,34.61,0,69.21c0,11.32,1.61,12.88,13.19,12.9q20.4,0,40.8,0c11.11,0,12.51-1.45,12.63-12.64,0-2.43,0-4.86,0-7.29q0-64.11,0-128.23c0-13.42,0-13.43,13.08-13.44,12.87,0,25.75.06,38.62,0,8.81-.07,11.51-2,12.66-10.64q3-22.71,5.15-45.54c1-10.55-1.62-13.16-12.12-13.25-16.27-.14-32.54-.22-48.81,0-6.24.08-8.71-2.41-8.61-8.61.22-15.05-.37-30.11.93-45.14,1.13-13.13,8.5-21.3,21.53-23.94,11.31-2.3,22.75-1.1,34.14-1.45,8.67-.28,11.38-2.81,11.48-11.37q.2-18.94,0-37.89c-.08-9.11-3.17-12.36-12.29-12.37-17.47,0-35-1-52.39,1.33-29.46,4-51.11,18.71-62.71,46.7A99.66,99.66,0,0,0,499,441.26q-.36,24,0,48.08c.06,5.63-2.16,7.93-7.71,7.87q-15.66-.19-31.32.07c-8.13.13-11.4,2.79-11.59,10.75q-.57,23.67,0,47.35c.18,8.06,3.81,11,12.11,11.12,10,.11,19.93.31,29.87,0,6.64-.24,8.89,2.26,8.8,8.9C498.81,598.91,499,622.47,499,646Z"/></svg>