<svg id="Capa_2" data-name="Capa 2" xmlns="http://www.w3.org/2000/svg" viewBox="0 0 1080 1080"><defs><style>.cls-1{fill:#696e5e;}</style></defs><path class="cls-1" d="M571.33,915.24h-61.2c-11.74-1.71-23.61-2.79-35.2-5.22q-222.57-46.74-293-263.09c-7.85-24-11.25-49.09-14.24-74.14V511.58c1.72-12,3.06-24,5.22-35.95,36.33-199.75,225.05-336.32,430.39-302.1,201.79,33.62,339.83,223.68,306.06,426.25C883.79,753,792.52,853,644.81,901.19,621,909,596.14,912.22,571.33,915.24Zm-29.86-559H468.62a117.28,117.28,0,0,0-23.15,2.23c-53.66,10.75-90.16,54.6-90.61,109.59-.4,49.54-.17,99.07,0,148.61a108.52,108.52,0,0,0,2.19,21c10.85,54.18,55.17,90.29,111.17,90.51q72.48.27,145-.06a121.31,121.31,0,0,0,22.42-2.16c53.91-10.4,90.55-54.46,91-109.95.38-49.29.16-98.58,0-147.87a111.24,111.24,0,0,0-2-20.26c-10.2-53.9-54.51-90.95-109.53-91.54C590.52,356,566,356.23,541.47,356.22Z"/><path class="cls-1" d="M390.52,537c.78-22.65-1.36-50.6,1-78.48,2.93-34.12,32.34-63.53,66.53-65.4,45.6-2.48,91.27-.49,136.91-1,11.9-.13,23.86-.56,35.58,1.81,35.88,7.23,59.73,36.53,60.19,75.44q.87,72.84,0,145.7c-.46,38.74-23.79,67.67-59.47,75.26a96.11,96.11,0,0,1-19.51,2c-47.36.17-94.71.29-142.06,0-39.77-.21-69.5-23.43-77.25-59.9-1.81-8.56-2-17.33-2-26.09C390.58,585,390.52,563.59,390.52,537Zm150.11-90.44c-52.53,0-95.54,43-95.57,95.52,0,52.88,43.06,95.86,96,95.79,52.28-.06,95.37-43.44,95.29-95.9S593.13,446.5,540.63,446.53Zm119.62-.79c0-13.12-9.31-22.58-22.32-22.67s-22.6,9.24-22.73,22.22,10,23.52,22.66,23.42A22.71,22.71,0,0,0,660.25,445.74Z"/><path class="cls-1" d="M540.08,602.15c-32.74-.57-59.89-28.33-59.32-60.62.57-32.72,28.33-59.88,60.62-59.31,32.76.57,59.89,28.29,59.31,60.61C600.11,575.58,572.38,602.73,540.08,602.15Z"/></svg>